<mxfile host="app.diagrams.net" modified="2024-05-09T20:05:10.468Z" agent="Mozilla/5.0 (X11; Linux x86_64; rv:125.0) Gecko/20100101 Firefox/125.0" etag="aK9xAqTf9SoWHIPf4hr_" version="24.3.1" type="github">
  <diagram name="Page-1" id="3ytib0Ygw_xLYDBIZhBg">
    <mxGraphModel dx="1434" dy="759" grid="1" gridSize="10" guides="1" tooltips="1" connect="1" arrows="1" fold="1" page="1" pageScale="1" pageWidth="850" pageHeight="1100" math="0" shadow="0">
      <root>
        <mxCell id="0" />
        <mxCell id="1" parent="0" />
        <mxCell id="NRrkbkx58YSTAkcjEtVz-2" value="&lt;font style=&quot;font-size: 16px;&quot; face=&quot;Courier New&quot;&gt;ATGGGTCCATATA&lt;/font&gt;&lt;font style=&quot;font-size: 16px;&quot; face=&quot;WW2qCex9ZGnOM6EULOnp&quot;&gt; &lt;/font&gt;" style="text;whiteSpace=wrap;html=1;" parent="1" vertex="1">
          <mxGeometry x="73" y="31" width="137" height="29" as="geometry" />
        </mxCell>
        <mxCell id="NRrkbkx58YSTAkcjEtVz-11" value="&lt;font style=&quot;font-size: 16px;&quot;&gt;R&lt;sub&gt;1&lt;br&gt;&lt;/sub&gt;&lt;/font&gt;" style="html=1;shadow=1;dashed=0;align=center;verticalAlign=middle;shape=mxgraph.arrows2.arrow;dy=0;dx=10;notch=0;fillColor=#f5f5f5;fontColor=#333333;strokeColor=#666666;strokeWidth=0;" parent="1" vertex="1">
          <mxGeometry x="10" y="39" width="60" height="20" as="geometry" />
        </mxCell>
        <mxCell id="NRrkbkx58YSTAkcjEtVz-19" value="&lt;font style=&quot;font-size: 16px;&quot;&gt;R&lt;sub&gt;2&lt;br&gt;&lt;/sub&gt;&lt;/font&gt;" style="html=1;shadow=1;dashed=0;align=center;verticalAlign=middle;shape=mxgraph.arrows2.arrow;dy=0;dx=10;notch=0;fillColor=#f5f5f5;fontColor=#333333;strokeColor=#666666;strokeWidth=0;" parent="1" vertex="1">
          <mxGeometry x="10" y="61" width="60" height="20" as="geometry" />
        </mxCell>
        <mxCell id="NRrkbkx58YSTAkcjEtVz-20" value="&lt;font style=&quot;font-size: 16px;&quot;&gt;R&lt;sub&gt;3&lt;br&gt;&lt;/sub&gt;&lt;/font&gt;" style="html=1;shadow=1;dashed=0;align=center;verticalAlign=middle;shape=mxgraph.arrows2.arrow;dy=0;dx=10;notch=0;fillColor=#f5f5f5;fontColor=#333333;strokeColor=#666666;strokeWidth=0;" parent="1" vertex="1">
          <mxGeometry x="10" y="83" width="60" height="20" as="geometry" />
        </mxCell>
        <mxCell id="NRrkbkx58YSTAkcjEtVz-21" value="&lt;font style=&quot;font-size: 16px;&quot;&gt;R&lt;sub&gt;4&lt;br&gt;&lt;/sub&gt;&lt;/font&gt;" style="html=1;shadow=1;dashed=0;align=center;verticalAlign=middle;shape=mxgraph.arrows2.arrow;dy=0;dx=10;notch=0;fillColor=#f5f5f5;fontColor=#333333;strokeColor=#666666;strokeWidth=0;" parent="1" vertex="1">
          <mxGeometry x="10" y="105" width="60" height="20" as="geometry" />
        </mxCell>
        <mxCell id="NRrkbkx58YSTAkcjEtVz-22" value="&lt;font style=&quot;font-size: 16px;&quot;&gt;R&lt;sub&gt;5&lt;br&gt;&lt;/sub&gt;&lt;/font&gt;" style="html=1;shadow=1;dashed=0;align=center;verticalAlign=middle;shape=mxgraph.arrows2.arrow;dy=0;dx=10;notch=0;fillColor=#f5f5f5;fontColor=#333333;strokeColor=#666666;strokeWidth=0;" parent="1" vertex="1">
          <mxGeometry x="210" y="39" width="60" height="20" as="geometry" />
        </mxCell>
        <mxCell id="NRrkbkx58YSTAkcjEtVz-23" value="&lt;font style=&quot;font-size: 16px;&quot;&gt;R&lt;sub&gt;6&lt;br&gt;&lt;/sub&gt;&lt;/font&gt;" style="html=1;shadow=1;dashed=0;align=center;verticalAlign=middle;shape=mxgraph.arrows2.arrow;dy=0;dx=10;notch=0;fillColor=#f5f5f5;fontColor=#333333;strokeColor=#666666;strokeWidth=0;" parent="1" vertex="1">
          <mxGeometry x="210" y="61" width="60" height="20" as="geometry" />
        </mxCell>
        <mxCell id="NRrkbkx58YSTAkcjEtVz-24" value="&lt;font style=&quot;font-size: 16px;&quot;&gt;R&lt;sub&gt;7&lt;br&gt;&lt;/sub&gt;&lt;/font&gt;" style="html=1;shadow=1;dashed=0;align=center;verticalAlign=middle;shape=mxgraph.arrows2.arrow;dy=0;dx=10;notch=0;fillColor=#f5f5f5;fontColor=#333333;strokeColor=#666666;strokeWidth=0;" parent="1" vertex="1">
          <mxGeometry x="210" y="83" width="60" height="20" as="geometry" />
        </mxCell>
        <mxCell id="NRrkbkx58YSTAkcjEtVz-25" value="&lt;font style=&quot;font-size: 16px;&quot;&gt;R&lt;sub&gt;8&lt;br&gt;&lt;/sub&gt;&lt;/font&gt;" style="html=1;shadow=1;dashed=0;align=center;verticalAlign=middle;shape=mxgraph.arrows2.arrow;dy=0;dx=10;notch=0;fillColor=#f5f5f5;fontColor=#333333;strokeColor=#666666;strokeWidth=0;" parent="1" vertex="1">
          <mxGeometry x="210" y="105" width="60" height="20" as="geometry" />
        </mxCell>
        <mxCell id="NRrkbkx58YSTAkcjEtVz-161" value="" style="group" parent="1" vertex="1" connectable="0">
          <mxGeometry x="10" y="320" width="440" height="119" as="geometry" />
        </mxCell>
        <mxCell id="NRrkbkx58YSTAkcjEtVz-157" style="edgeStyle=orthogonalEdgeStyle;rounded=0;orthogonalLoop=1;jettySize=auto;html=1;exitX=0.5;exitY=0;exitDx=0;exitDy=0;entryX=0.5;entryY=1;entryDx=0;entryDy=0;startArrow=classic;startFill=1;endArrow=none;endFill=0;" parent="NRrkbkx58YSTAkcjEtVz-161" edge="1">
          <mxGeometry relative="1" as="geometry">
            <mxPoint x="424" y="80" as="sourcePoint" />
            <mxPoint x="424" y="41" as="targetPoint" />
          </mxGeometry>
        </mxCell>
        <mxCell id="NRrkbkx58YSTAkcjEtVz-158" value="8" style="edgeLabel;html=1;align=center;verticalAlign=middle;resizable=0;points=[];" parent="NRrkbkx58YSTAkcjEtVz-157" vertex="1" connectable="0">
          <mxGeometry x="0.0221" y="-2" relative="1" as="geometry">
            <mxPoint as="offset" />
          </mxGeometry>
        </mxCell>
        <mxCell id="NRrkbkx58YSTAkcjEtVz-117" style="rounded=0;orthogonalLoop=1;jettySize=auto;html=1;exitX=1;exitY=1;exitDx=0;exitDy=0;entryX=0;entryY=0;entryDx=0;entryDy=0;" parent="NRrkbkx58YSTAkcjEtVz-161" source="NRrkbkx58YSTAkcjEtVz-151" target="NRrkbkx58YSTAkcjEtVz-155" edge="1">
          <mxGeometry relative="1" as="geometry" />
        </mxCell>
        <mxCell id="NRrkbkx58YSTAkcjEtVz-118" style="edgeStyle=orthogonalEdgeStyle;rounded=0;orthogonalLoop=1;jettySize=auto;html=1;exitX=1;exitY=0.5;exitDx=0;exitDy=0;entryX=0;entryY=0.5;entryDx=0;entryDy=0;" parent="NRrkbkx58YSTAkcjEtVz-161" source="NRrkbkx58YSTAkcjEtVz-124" target="NRrkbkx58YSTAkcjEtVz-129" edge="1">
          <mxGeometry relative="1" as="geometry" />
        </mxCell>
        <mxCell id="NRrkbkx58YSTAkcjEtVz-119" value="11" style="edgeLabel;html=1;align=center;verticalAlign=middle;resizable=0;points=[];" parent="NRrkbkx58YSTAkcjEtVz-118" vertex="1" connectable="0">
          <mxGeometry x="-0.2422" y="2" relative="1" as="geometry">
            <mxPoint as="offset" />
          </mxGeometry>
        </mxCell>
        <mxCell id="NRrkbkx58YSTAkcjEtVz-120" style="edgeStyle=orthogonalEdgeStyle;rounded=0;orthogonalLoop=1;jettySize=auto;html=1;exitX=0.5;exitY=1;exitDx=0;exitDy=0;entryX=0.5;entryY=1;entryDx=0;entryDy=0;opacity=20;" parent="NRrkbkx58YSTAkcjEtVz-161" source="NRrkbkx58YSTAkcjEtVz-124" target="NRrkbkx58YSTAkcjEtVz-136" edge="1">
          <mxGeometry relative="1" as="geometry" />
        </mxCell>
        <mxCell id="NRrkbkx58YSTAkcjEtVz-121" value="9" style="edgeLabel;html=1;align=center;verticalAlign=middle;resizable=0;points=[];textOpacity=20;" parent="NRrkbkx58YSTAkcjEtVz-120" vertex="1" connectable="0">
          <mxGeometry x="-0.035" y="1" relative="1" as="geometry">
            <mxPoint as="offset" />
          </mxGeometry>
        </mxCell>
        <mxCell id="NRrkbkx58YSTAkcjEtVz-122" style="edgeStyle=orthogonalEdgeStyle;rounded=0;orthogonalLoop=1;jettySize=auto;html=1;exitX=0.5;exitY=0;exitDx=0;exitDy=0;entryX=0.5;entryY=0;entryDx=0;entryDy=0;opacity=20;" parent="NRrkbkx58YSTAkcjEtVz-161" source="NRrkbkx58YSTAkcjEtVz-124" target="NRrkbkx58YSTAkcjEtVz-141" edge="1">
          <mxGeometry relative="1" as="geometry">
            <Array as="points">
              <mxPoint x="20" />
              <mxPoint x="260" />
            </Array>
          </mxGeometry>
        </mxCell>
        <mxCell id="NRrkbkx58YSTAkcjEtVz-123" value="6" style="edgeLabel;html=1;align=center;verticalAlign=middle;resizable=0;points=[];textOpacity=20;" parent="NRrkbkx58YSTAkcjEtVz-122" vertex="1" connectable="0">
          <mxGeometry x="0.083" y="1" relative="1" as="geometry">
            <mxPoint as="offset" />
          </mxGeometry>
        </mxCell>
        <mxCell id="NRrkbkx58YSTAkcjEtVz-124" value="&lt;font style=&quot;font-size: 16px;&quot;&gt;R&lt;sub&gt;4&lt;/sub&gt;&lt;/font&gt;" style="ellipse;whiteSpace=wrap;html=1;aspect=fixed;fillColor=#f5f5f5;fontColor=#333333;strokeColor=none;shadow=1;" parent="NRrkbkx58YSTAkcjEtVz-161" vertex="1">
          <mxGeometry y="39" width="40" height="40" as="geometry" />
        </mxCell>
        <mxCell id="NRrkbkx58YSTAkcjEtVz-125" style="edgeStyle=orthogonalEdgeStyle;rounded=0;orthogonalLoop=1;jettySize=auto;html=1;exitX=0.5;exitY=0;exitDx=0;exitDy=0;entryX=0.5;entryY=0;entryDx=0;entryDy=0;textOpacity=20;opacity=20;" parent="NRrkbkx58YSTAkcjEtVz-161" source="NRrkbkx58YSTAkcjEtVz-129" target="NRrkbkx58YSTAkcjEtVz-141" edge="1">
          <mxGeometry relative="1" as="geometry" />
        </mxCell>
        <mxCell id="NRrkbkx58YSTAkcjEtVz-126" value="8" style="edgeLabel;html=1;align=center;verticalAlign=middle;resizable=0;points=[];textOpacity=20;" parent="NRrkbkx58YSTAkcjEtVz-125" vertex="1" connectable="0">
          <mxGeometry x="0.0557" y="-1" relative="1" as="geometry">
            <mxPoint as="offset" />
          </mxGeometry>
        </mxCell>
        <mxCell id="NRrkbkx58YSTAkcjEtVz-127" style="edgeStyle=orthogonalEdgeStyle;rounded=0;orthogonalLoop=1;jettySize=auto;html=1;exitX=1;exitY=1;exitDx=0;exitDy=0;entryX=0;entryY=1;entryDx=0;entryDy=0;" parent="NRrkbkx58YSTAkcjEtVz-161" source="NRrkbkx58YSTAkcjEtVz-129" target="NRrkbkx58YSTAkcjEtVz-136" edge="1">
          <mxGeometry relative="1" as="geometry" />
        </mxCell>
        <mxCell id="NRrkbkx58YSTAkcjEtVz-128" value="11" style="edgeLabel;html=1;align=center;verticalAlign=middle;resizable=0;points=[];" parent="NRrkbkx58YSTAkcjEtVz-127" vertex="1" connectable="0">
          <mxGeometry x="0.1392" y="-1" relative="1" as="geometry">
            <mxPoint as="offset" />
          </mxGeometry>
        </mxCell>
        <mxCell id="NRrkbkx58YSTAkcjEtVz-129" value="&lt;font style=&quot;font-size: 16px;&quot;&gt;R&lt;sub&gt;1&lt;/sub&gt;&lt;/font&gt;" style="ellipse;whiteSpace=wrap;html=1;aspect=fixed;fillColor=#f5f5f5;fontColor=#333333;strokeColor=none;shadow=1;" parent="NRrkbkx58YSTAkcjEtVz-161" vertex="1">
          <mxGeometry x="80" y="39" width="40" height="40" as="geometry" />
        </mxCell>
        <mxCell id="NRrkbkx58YSTAkcjEtVz-130" style="edgeStyle=orthogonalEdgeStyle;rounded=0;orthogonalLoop=1;jettySize=auto;html=1;exitX=1;exitY=0.5;exitDx=0;exitDy=0;entryX=0;entryY=0.5;entryDx=0;entryDy=0;" parent="NRrkbkx58YSTAkcjEtVz-161" source="NRrkbkx58YSTAkcjEtVz-136" target="NRrkbkx58YSTAkcjEtVz-141" edge="1">
          <mxGeometry relative="1" as="geometry" />
        </mxCell>
        <mxCell id="NRrkbkx58YSTAkcjEtVz-131" value="10" style="edgeLabel;html=1;align=center;verticalAlign=middle;resizable=0;points=[];" parent="NRrkbkx58YSTAkcjEtVz-130" vertex="1" connectable="0">
          <mxGeometry x="0.004" relative="1" as="geometry">
            <mxPoint as="offset" />
          </mxGeometry>
        </mxCell>
        <mxCell id="NRrkbkx58YSTAkcjEtVz-132" style="edgeStyle=orthogonalEdgeStyle;rounded=0;orthogonalLoop=1;jettySize=auto;html=1;exitX=0;exitY=0;exitDx=0;exitDy=0;entryX=1;entryY=0;entryDx=0;entryDy=0;textOpacity=20;opacity=20;" parent="NRrkbkx58YSTAkcjEtVz-161" source="NRrkbkx58YSTAkcjEtVz-136" target="NRrkbkx58YSTAkcjEtVz-129" edge="1">
          <mxGeometry relative="1" as="geometry" />
        </mxCell>
        <mxCell id="NRrkbkx58YSTAkcjEtVz-133" value="6" style="edgeLabel;html=1;align=center;verticalAlign=middle;resizable=0;points=[];textOpacity=20;" parent="NRrkbkx58YSTAkcjEtVz-132" vertex="1" connectable="0">
          <mxGeometry x="0.0522" y="-1" relative="1" as="geometry">
            <mxPoint y="2" as="offset" />
          </mxGeometry>
        </mxCell>
        <mxCell id="NRrkbkx58YSTAkcjEtVz-134" style="edgeStyle=orthogonalEdgeStyle;rounded=0;orthogonalLoop=1;jettySize=auto;html=1;exitX=1;exitY=1;exitDx=0;exitDy=0;entryX=0.5;entryY=1;entryDx=0;entryDy=0;opacity=20;" parent="NRrkbkx58YSTAkcjEtVz-161" source="NRrkbkx58YSTAkcjEtVz-136" target="NRrkbkx58YSTAkcjEtVz-148" edge="1">
          <mxGeometry relative="1" as="geometry">
            <Array as="points">
              <mxPoint x="191" y="99" />
              <mxPoint x="340" y="99" />
            </Array>
          </mxGeometry>
        </mxCell>
        <mxCell id="NRrkbkx58YSTAkcjEtVz-135" value="6" style="edgeLabel;html=1;align=center;verticalAlign=middle;resizable=0;points=[];textOpacity=20;" parent="NRrkbkx58YSTAkcjEtVz-134" vertex="1" connectable="0">
          <mxGeometry x="0.0435" y="-1" relative="1" as="geometry">
            <mxPoint as="offset" />
          </mxGeometry>
        </mxCell>
        <mxCell id="NRrkbkx58YSTAkcjEtVz-136" value="&lt;font style=&quot;font-size: 16px;&quot;&gt;R&lt;sub&gt;8&lt;/sub&gt;&lt;/font&gt;" style="ellipse;whiteSpace=wrap;html=1;aspect=fixed;fillColor=#f5f5f5;fontColor=#333333;strokeColor=none;shadow=1;" parent="NRrkbkx58YSTAkcjEtVz-161" vertex="1">
          <mxGeometry x="157" y="39" width="40" height="40" as="geometry" />
        </mxCell>
        <mxCell id="NRrkbkx58YSTAkcjEtVz-137" style="edgeStyle=orthogonalEdgeStyle;rounded=0;orthogonalLoop=1;jettySize=auto;html=1;exitX=1;exitY=0.5;exitDx=0;exitDy=0;entryX=0;entryY=0.5;entryDx=0;entryDy=0;" parent="NRrkbkx58YSTAkcjEtVz-161" source="NRrkbkx58YSTAkcjEtVz-141" target="NRrkbkx58YSTAkcjEtVz-148" edge="1">
          <mxGeometry relative="1" as="geometry" />
        </mxCell>
        <mxCell id="NRrkbkx58YSTAkcjEtVz-138" value="7" style="edgeLabel;html=1;align=center;verticalAlign=middle;resizable=0;points=[];" parent="NRrkbkx58YSTAkcjEtVz-137" vertex="1" connectable="0">
          <mxGeometry x="-0.1052" y="-1" relative="1" as="geometry">
            <mxPoint as="offset" />
          </mxGeometry>
        </mxCell>
        <mxCell id="NRrkbkx58YSTAkcjEtVz-139" style="edgeStyle=orthogonalEdgeStyle;rounded=0;orthogonalLoop=1;jettySize=auto;html=1;exitX=1;exitY=0.5;exitDx=0;exitDy=0;entryX=0;entryY=0.5;entryDx=0;entryDy=0;opacity=20;" parent="NRrkbkx58YSTAkcjEtVz-161" source="NRrkbkx58YSTAkcjEtVz-141" target="NRrkbkx58YSTAkcjEtVz-151" edge="1">
          <mxGeometry relative="1" as="geometry" />
        </mxCell>
        <mxCell id="NRrkbkx58YSTAkcjEtVz-140" value="7" style="edgeLabel;html=1;align=center;verticalAlign=middle;resizable=0;points=[];" parent="NRrkbkx58YSTAkcjEtVz-139" vertex="1" connectable="0">
          <mxGeometry x="0.117" y="1" relative="1" as="geometry">
            <mxPoint as="offset" />
          </mxGeometry>
        </mxCell>
        <mxCell id="NRrkbkx58YSTAkcjEtVz-141" value="&lt;font style=&quot;font-size: 16px;&quot;&gt;R&lt;sub&gt;7&lt;/sub&gt;&lt;/font&gt;" style="ellipse;whiteSpace=wrap;html=1;aspect=fixed;fillColor=#f5f5f5;fontColor=#333333;strokeColor=none;shadow=1;" parent="NRrkbkx58YSTAkcjEtVz-161" vertex="1">
          <mxGeometry x="240" y="39" width="40" height="40" as="geometry" />
        </mxCell>
        <mxCell id="NRrkbkx58YSTAkcjEtVz-142" style="rounded=0;orthogonalLoop=1;jettySize=auto;html=1;exitX=1;exitY=0;exitDx=0;exitDy=0;entryX=0;entryY=1;entryDx=0;entryDy=0;opacity=20;" parent="NRrkbkx58YSTAkcjEtVz-161" source="NRrkbkx58YSTAkcjEtVz-148" target="NRrkbkx58YSTAkcjEtVz-152" edge="1">
          <mxGeometry relative="1" as="geometry" />
        </mxCell>
        <mxCell id="NRrkbkx58YSTAkcjEtVz-143" value="6" style="edgeLabel;html=1;align=center;verticalAlign=middle;resizable=0;points=[];" parent="NRrkbkx58YSTAkcjEtVz-142" vertex="1" connectable="0">
          <mxGeometry x="0.0207" y="2" relative="1" as="geometry">
            <mxPoint x="-15" y="16" as="offset" />
          </mxGeometry>
        </mxCell>
        <mxCell id="NRrkbkx58YSTAkcjEtVz-144" style="edgeStyle=orthogonalEdgeStyle;rounded=0;orthogonalLoop=1;jettySize=auto;html=1;exitX=0.5;exitY=0;exitDx=0;exitDy=0;entryX=0.5;entryY=1;entryDx=0;entryDy=0;" parent="NRrkbkx58YSTAkcjEtVz-161" source="NRrkbkx58YSTAkcjEtVz-148" target="NRrkbkx58YSTAkcjEtVz-151" edge="1">
          <mxGeometry relative="1" as="geometry" />
        </mxCell>
        <mxCell id="NRrkbkx58YSTAkcjEtVz-145" value="8" style="edgeLabel;html=1;align=center;verticalAlign=middle;resizable=0;points=[];" parent="NRrkbkx58YSTAkcjEtVz-144" vertex="1" connectable="0">
          <mxGeometry x="0.0575" relative="1" as="geometry">
            <mxPoint as="offset" />
          </mxGeometry>
        </mxCell>
        <mxCell id="NRrkbkx58YSTAkcjEtVz-146" style="edgeStyle=orthogonalEdgeStyle;rounded=0;orthogonalLoop=1;jettySize=auto;html=1;exitX=1;exitY=0.5;exitDx=0;exitDy=0;entryX=0;entryY=0.5;entryDx=0;entryDy=0;opacity=20;" parent="NRrkbkx58YSTAkcjEtVz-161" source="NRrkbkx58YSTAkcjEtVz-148" target="NRrkbkx58YSTAkcjEtVz-155" edge="1">
          <mxGeometry relative="1" as="geometry" />
        </mxCell>
        <mxCell id="NRrkbkx58YSTAkcjEtVz-147" value="6" style="edgeLabel;html=1;align=center;verticalAlign=middle;resizable=0;points=[];" parent="NRrkbkx58YSTAkcjEtVz-146" vertex="1" connectable="0">
          <mxGeometry x="-0.0017" y="2" relative="1" as="geometry">
            <mxPoint as="offset" />
          </mxGeometry>
        </mxCell>
        <mxCell id="NRrkbkx58YSTAkcjEtVz-148" value="&lt;font style=&quot;font-size: 16px;&quot;&gt;R&lt;sub&gt;3&lt;/sub&gt;&lt;/font&gt;" style="ellipse;whiteSpace=wrap;html=1;aspect=fixed;fillColor=#f5f5f5;fontColor=#333333;strokeColor=none;shadow=1;" parent="NRrkbkx58YSTAkcjEtVz-161" vertex="1">
          <mxGeometry x="320" y="79" width="40" height="40" as="geometry" />
        </mxCell>
        <mxCell id="NRrkbkx58YSTAkcjEtVz-149" style="edgeStyle=orthogonalEdgeStyle;rounded=0;orthogonalLoop=1;jettySize=auto;html=1;exitX=1;exitY=0.5;exitDx=0;exitDy=0;" parent="NRrkbkx58YSTAkcjEtVz-161" source="NRrkbkx58YSTAkcjEtVz-151" target="NRrkbkx58YSTAkcjEtVz-152" edge="1">
          <mxGeometry relative="1" as="geometry" />
        </mxCell>
        <mxCell id="NRrkbkx58YSTAkcjEtVz-150" value="8" style="edgeLabel;html=1;align=center;verticalAlign=middle;resizable=0;points=[];" parent="NRrkbkx58YSTAkcjEtVz-149" vertex="1" connectable="0">
          <mxGeometry x="-0.1052" relative="1" as="geometry">
            <mxPoint as="offset" />
          </mxGeometry>
        </mxCell>
        <mxCell id="NRrkbkx58YSTAkcjEtVz-151" value="&lt;font style=&quot;font-size: 16px;&quot;&gt;R&lt;sub&gt;5&lt;/sub&gt;&lt;/font&gt;" style="ellipse;whiteSpace=wrap;html=1;aspect=fixed;fillColor=#f5f5f5;fontColor=#333333;strokeColor=none;shadow=1;" parent="NRrkbkx58YSTAkcjEtVz-161" vertex="1">
          <mxGeometry x="320" width="40" height="40" as="geometry" />
        </mxCell>
        <mxCell id="NRrkbkx58YSTAkcjEtVz-152" value="&lt;font style=&quot;font-size: 16px;&quot;&gt;R&lt;sub&gt;2&lt;/sub&gt;&lt;/font&gt;" style="ellipse;whiteSpace=wrap;html=1;aspect=fixed;fillColor=#f5f5f5;fontColor=#333333;strokeColor=none;shadow=1;" parent="NRrkbkx58YSTAkcjEtVz-161" vertex="1">
          <mxGeometry x="400" width="40" height="40" as="geometry" />
        </mxCell>
        <mxCell id="NRrkbkx58YSTAkcjEtVz-153" style="edgeStyle=orthogonalEdgeStyle;rounded=0;orthogonalLoop=1;jettySize=auto;html=1;exitX=0.5;exitY=0;exitDx=0;exitDy=0;entryX=0.5;entryY=1;entryDx=0;entryDy=0;startArrow=none;startFill=0;" parent="NRrkbkx58YSTAkcjEtVz-161" edge="1">
          <mxGeometry relative="1" as="geometry">
            <mxPoint x="415.9999999999998" y="79.99999999999989" as="sourcePoint" />
            <mxPoint x="415.9999999999998" y="41" as="targetPoint" />
          </mxGeometry>
        </mxCell>
        <mxCell id="NRrkbkx58YSTAkcjEtVz-154" value="8" style="edgeLabel;html=1;align=center;verticalAlign=middle;resizable=0;points=[];" parent="NRrkbkx58YSTAkcjEtVz-153" vertex="1" connectable="0">
          <mxGeometry x="0.0221" y="-2" relative="1" as="geometry">
            <mxPoint as="offset" />
          </mxGeometry>
        </mxCell>
        <mxCell id="NRrkbkx58YSTAkcjEtVz-155" value="&lt;font style=&quot;font-size: 16px;&quot;&gt;R&lt;sub&gt;6&lt;/sub&gt;&lt;/font&gt;" style="ellipse;whiteSpace=wrap;html=1;aspect=fixed;fillColor=#f5f5f5;fontColor=#333333;strokeColor=none;shadow=1;" parent="NRrkbkx58YSTAkcjEtVz-161" vertex="1">
          <mxGeometry x="400" y="79" width="40" height="40" as="geometry" />
        </mxCell>
        <mxCell id="NRrkbkx58YSTAkcjEtVz-156" value="8" style="edgeLabel;html=1;align=center;verticalAlign=middle;resizable=0;points=[];" parent="NRrkbkx58YSTAkcjEtVz-161" vertex="1" connectable="0">
          <mxGeometry x="380.33124540261724" y="92.35460854201926" as="geometry">
            <mxPoint x="-15" y="-48" as="offset" />
          </mxGeometry>
        </mxCell>
        <mxCell id="IgfFBBctw5f2I0VB_9IK-5" value="&lt;font face=&quot;Courier New&quot;&gt;ATGGGTCCATA&lt;/font&gt;" style="text;html=1;align=center;verticalAlign=middle;whiteSpace=wrap;rounded=0;fontSize=16;" vertex="1" parent="1">
          <mxGeometry x="545" y="105.9" width="117" height="30" as="geometry" />
        </mxCell>
        <mxCell id="IgfFBBctw5f2I0VB_9IK-6" value="ATGGGTCCATATA" style="text;whiteSpace=wrap;fontSize=16;fontFamily=Courier New;" vertex="1" parent="1">
          <mxGeometry x="549" y="76.9" width="130" height="30" as="geometry" />
        </mxCell>
        <mxCell id="IgfFBBctw5f2I0VB_9IK-10" value="TCCATATATATA" style="text;whiteSpace=wrap;fontFamily=Courier New;fontSize=16;" vertex="1" parent="1">
          <mxGeometry x="598" y="229.9" width="110" height="40" as="geometry" />
        </mxCell>
        <mxCell id="IgfFBBctw5f2I0VB_9IK-15" value="&lt;font face=&quot;Courier New&quot;&gt;GGGTCC&lt;span style=&quot;background-color: rgb(204, 204, 204);&quot;&gt;T&lt;/span&gt;TATATA&lt;/font&gt;" style="text;html=1;align=center;verticalAlign=middle;whiteSpace=wrap;rounded=0;fontSize=16;" vertex="1" parent="1">
          <mxGeometry x="602" y="169.9" width="60" height="30" as="geometry" />
        </mxCell>
        <mxCell id="IgfFBBctw5f2I0VB_9IK-16" value="&lt;font style=&quot;font-size: 16px;&quot;&gt;R&lt;sub&gt;4&lt;br&gt;&lt;/sub&gt;&lt;/font&gt;" style="html=1;shadow=1;dashed=0;align=center;verticalAlign=middle;shape=mxgraph.arrows2.arrow;dy=0;dx=10;notch=0;fillColor=#f5f5f5;fontColor=#333333;strokeColor=#666666;strokeWidth=0;" vertex="1" parent="1">
          <mxGeometry x="481" y="110.9" width="60" height="20" as="geometry" />
        </mxCell>
        <mxCell id="IgfFBBctw5f2I0VB_9IK-17" value="&lt;font style=&quot;font-size: 16px;&quot;&gt;R&lt;sub&gt;4&lt;br&gt;&lt;/sub&gt;&lt;/font&gt;" style="html=1;shadow=1;dashed=0;align=center;verticalAlign=middle;shape=mxgraph.arrows2.arrow;dy=0;dx=10;notch=0;fillColor=#f5f5f5;fontColor=#333333;strokeColor=#666666;strokeWidth=0;" vertex="1" parent="1">
          <mxGeometry x="480" y="205.9" width="60" height="20" as="geometry" />
        </mxCell>
        <mxCell id="IgfFBBctw5f2I0VB_9IK-18" value="&lt;font style=&quot;font-size: 16px;&quot;&gt;R&lt;sub&gt;4&lt;br&gt;&lt;/sub&gt;&lt;/font&gt;" style="html=1;shadow=1;dashed=0;align=center;verticalAlign=middle;shape=mxgraph.arrows2.arrow;dy=0;dx=10;notch=0;fillColor=#f5f5f5;fontColor=#333333;strokeColor=#666666;strokeWidth=0;" vertex="1" parent="1">
          <mxGeometry x="481" y="265.9" width="60" height="20" as="geometry" />
        </mxCell>
        <mxCell id="IgfFBBctw5f2I0VB_9IK-19" value="&lt;font style=&quot;font-size: 16px;&quot;&gt;R&lt;sub&gt;1&lt;br&gt;&lt;/sub&gt;&lt;/font&gt;" style="html=1;shadow=1;dashed=0;align=center;verticalAlign=middle;shape=mxgraph.arrows2.arrow;dy=0;dx=10;notch=0;fillColor=#f5f5f5;fontColor=#333333;strokeColor=#666666;strokeWidth=0;" vertex="1" parent="1">
          <mxGeometry x="481" y="81.9" width="60" height="20" as="geometry" />
        </mxCell>
        <mxCell id="IgfFBBctw5f2I0VB_9IK-20" value="&lt;font face=&quot;Courier New&quot;&gt;ATGGGTCCATA&lt;/font&gt;" style="text;html=1;align=center;verticalAlign=middle;whiteSpace=wrap;rounded=0;fontSize=16;" vertex="1" parent="1">
          <mxGeometry x="545" y="199.9" width="117" height="30" as="geometry" />
        </mxCell>
        <mxCell id="IgfFBBctw5f2I0VB_9IK-21" value="&lt;font face=&quot;Courier New&quot;&gt;ATGGGTCCATA&lt;/font&gt;" style="text;html=1;align=center;verticalAlign=middle;whiteSpace=wrap;rounded=0;fontSize=16;" vertex="1" parent="1">
          <mxGeometry x="546" y="259.9" width="117" height="30" as="geometry" />
        </mxCell>
        <mxCell id="IgfFBBctw5f2I0VB_9IK-25" value="" style="group;fontColor=#999999;" vertex="1" connectable="0" parent="1">
          <mxGeometry x="550" y="97.9" width="30" height="16" as="geometry" />
        </mxCell>
        <mxCell id="IgfFBBctw5f2I0VB_9IK-22" value="&lt;b&gt;|&lt;/b&gt;" style="text;html=1;align=center;verticalAlign=middle;whiteSpace=wrap;rounded=0;fontColor=#999999;" vertex="1" parent="IgfFBBctw5f2I0VB_9IK-25">
          <mxGeometry width="10" height="16" as="geometry" />
        </mxCell>
        <mxCell id="IgfFBBctw5f2I0VB_9IK-23" value="&lt;b&gt;|&lt;/b&gt;" style="text;html=1;align=center;verticalAlign=middle;whiteSpace=wrap;rounded=0;fontColor=#999999;" vertex="1" parent="IgfFBBctw5f2I0VB_9IK-25">
          <mxGeometry x="10" width="10" height="16" as="geometry" />
        </mxCell>
        <mxCell id="IgfFBBctw5f2I0VB_9IK-24" value="&lt;b&gt;|&lt;/b&gt;" style="text;html=1;align=center;verticalAlign=middle;whiteSpace=wrap;rounded=0;fontColor=#999999;" vertex="1" parent="IgfFBBctw5f2I0VB_9IK-25">
          <mxGeometry x="20" width="10" height="16" as="geometry" />
        </mxCell>
        <mxCell id="IgfFBBctw5f2I0VB_9IK-26" value="" style="group;fontColor=#999999;" vertex="1" connectable="0" parent="1">
          <mxGeometry x="579" y="97.9" width="30" height="16" as="geometry" />
        </mxCell>
        <mxCell id="IgfFBBctw5f2I0VB_9IK-27" value="&lt;b&gt;|&lt;/b&gt;" style="text;html=1;align=center;verticalAlign=middle;whiteSpace=wrap;rounded=0;fontColor=#999999;" vertex="1" parent="IgfFBBctw5f2I0VB_9IK-26">
          <mxGeometry width="10" height="16" as="geometry" />
        </mxCell>
        <mxCell id="IgfFBBctw5f2I0VB_9IK-28" value="&lt;b&gt;|&lt;/b&gt;" style="text;html=1;align=center;verticalAlign=middle;whiteSpace=wrap;rounded=0;fontColor=#999999;" vertex="1" parent="IgfFBBctw5f2I0VB_9IK-26">
          <mxGeometry x="10" width="10" height="16" as="geometry" />
        </mxCell>
        <mxCell id="IgfFBBctw5f2I0VB_9IK-29" value="&lt;b&gt;|&lt;/b&gt;" style="text;html=1;align=center;verticalAlign=middle;whiteSpace=wrap;rounded=0;fontColor=#999999;" vertex="1" parent="IgfFBBctw5f2I0VB_9IK-26">
          <mxGeometry x="20" width="10" height="16" as="geometry" />
        </mxCell>
        <mxCell id="IgfFBBctw5f2I0VB_9IK-30" value="" style="group;fontColor=#999999;" vertex="1" connectable="0" parent="1">
          <mxGeometry x="608" y="97.9" width="30" height="16" as="geometry" />
        </mxCell>
        <mxCell id="IgfFBBctw5f2I0VB_9IK-31" value="&lt;b&gt;|&lt;/b&gt;" style="text;html=1;align=center;verticalAlign=middle;whiteSpace=wrap;rounded=0;fontColor=#999999;" vertex="1" parent="IgfFBBctw5f2I0VB_9IK-30">
          <mxGeometry width="10" height="16" as="geometry" />
        </mxCell>
        <mxCell id="IgfFBBctw5f2I0VB_9IK-32" value="&lt;b&gt;|&lt;/b&gt;" style="text;html=1;align=center;verticalAlign=middle;whiteSpace=wrap;rounded=0;fontColor=#999999;" vertex="1" parent="IgfFBBctw5f2I0VB_9IK-30">
          <mxGeometry x="10" width="10" height="16" as="geometry" />
        </mxCell>
        <mxCell id="IgfFBBctw5f2I0VB_9IK-33" value="&lt;b&gt;|&lt;/b&gt;" style="text;html=1;align=center;verticalAlign=middle;whiteSpace=wrap;rounded=0;fontColor=#999999;" vertex="1" parent="IgfFBBctw5f2I0VB_9IK-30">
          <mxGeometry x="20" width="10" height="16" as="geometry" />
        </mxCell>
        <mxCell id="IgfFBBctw5f2I0VB_9IK-34" value="" style="group;fontColor=#999999;" vertex="1" connectable="0" parent="1">
          <mxGeometry x="637" y="97.9" width="30" height="16" as="geometry" />
        </mxCell>
        <mxCell id="IgfFBBctw5f2I0VB_9IK-35" value="&lt;b&gt;|&lt;/b&gt;" style="text;html=1;align=center;verticalAlign=middle;whiteSpace=wrap;rounded=0;fontColor=#999999;" vertex="1" parent="IgfFBBctw5f2I0VB_9IK-34">
          <mxGeometry width="10" height="16" as="geometry" />
        </mxCell>
        <mxCell id="IgfFBBctw5f2I0VB_9IK-36" value="&lt;b&gt;|&lt;/b&gt;" style="text;html=1;align=center;verticalAlign=middle;whiteSpace=wrap;rounded=0;fontColor=#999999;" vertex="1" parent="IgfFBBctw5f2I0VB_9IK-34">
          <mxGeometry x="10" width="10" height="16" as="geometry" />
        </mxCell>
        <mxCell id="IgfFBBctw5f2I0VB_9IK-38" value="" style="group;fontColor=#999999;" vertex="1" connectable="0" parent="1">
          <mxGeometry x="569" y="191.9" width="30" height="16" as="geometry" />
        </mxCell>
        <mxCell id="IgfFBBctw5f2I0VB_9IK-39" value="&lt;b&gt;|&lt;/b&gt;" style="text;html=1;align=center;verticalAlign=middle;whiteSpace=wrap;rounded=0;fontColor=#999999;" vertex="1" parent="IgfFBBctw5f2I0VB_9IK-38">
          <mxGeometry width="10" height="16" as="geometry" />
        </mxCell>
        <mxCell id="IgfFBBctw5f2I0VB_9IK-40" value="&lt;b&gt;|&lt;/b&gt;" style="text;html=1;align=center;verticalAlign=middle;whiteSpace=wrap;rounded=0;fontColor=#999999;" vertex="1" parent="IgfFBBctw5f2I0VB_9IK-38">
          <mxGeometry x="10" width="10" height="16" as="geometry" />
        </mxCell>
        <mxCell id="IgfFBBctw5f2I0VB_9IK-41" value="&lt;b&gt;|&lt;/b&gt;" style="text;html=1;align=center;verticalAlign=middle;whiteSpace=wrap;rounded=0;fontColor=#999999;" vertex="1" parent="IgfFBBctw5f2I0VB_9IK-38">
          <mxGeometry x="20" width="10" height="16" as="geometry" />
        </mxCell>
        <mxCell id="IgfFBBctw5f2I0VB_9IK-42" value="" style="group;fontColor=#999999;" vertex="1" connectable="0" parent="1">
          <mxGeometry x="598" y="191.9" width="30" height="16" as="geometry" />
        </mxCell>
        <mxCell id="IgfFBBctw5f2I0VB_9IK-43" value="&lt;b&gt;|&lt;/b&gt;" style="text;html=1;align=center;verticalAlign=middle;whiteSpace=wrap;rounded=0;fontColor=#999999;" vertex="1" parent="IgfFBBctw5f2I0VB_9IK-42">
          <mxGeometry width="10" height="16" as="geometry" />
        </mxCell>
        <mxCell id="IgfFBBctw5f2I0VB_9IK-44" value="&lt;b&gt;|&lt;/b&gt;" style="text;html=1;align=center;verticalAlign=middle;whiteSpace=wrap;rounded=0;fontColor=#999999;" vertex="1" parent="IgfFBBctw5f2I0VB_9IK-42">
          <mxGeometry x="10" width="10" height="16" as="geometry" />
        </mxCell>
        <mxCell id="IgfFBBctw5f2I0VB_9IK-45" value="&lt;b&gt;|&lt;/b&gt;" style="text;html=1;align=center;verticalAlign=middle;whiteSpace=wrap;rounded=0;fontColor=#999999;" vertex="1" parent="IgfFBBctw5f2I0VB_9IK-42">
          <mxGeometry x="20" width="10" height="16" as="geometry" />
        </mxCell>
        <mxCell id="IgfFBBctw5f2I0VB_9IK-46" value="" style="group;fontColor=#999999;" vertex="1" connectable="0" parent="1">
          <mxGeometry x="627" y="191.9" width="30" height="16" as="geometry" />
        </mxCell>
        <mxCell id="IgfFBBctw5f2I0VB_9IK-47" value="&lt;b&gt;&lt;sub&gt;*&lt;/sub&gt;&lt;/b&gt;" style="text;html=1;align=center;verticalAlign=middle;whiteSpace=wrap;rounded=0;fontColor=#999999;" vertex="1" parent="IgfFBBctw5f2I0VB_9IK-46">
          <mxGeometry width="10" height="16" as="geometry" />
        </mxCell>
        <mxCell id="IgfFBBctw5f2I0VB_9IK-48" value="&lt;b&gt;|&lt;/b&gt;" style="text;html=1;align=center;verticalAlign=middle;whiteSpace=wrap;rounded=0;fontColor=#999999;" vertex="1" parent="IgfFBBctw5f2I0VB_9IK-46">
          <mxGeometry x="10" width="10" height="16" as="geometry" />
        </mxCell>
        <mxCell id="IgfFBBctw5f2I0VB_9IK-49" value="&lt;b&gt;|&lt;/b&gt;" style="text;html=1;align=center;verticalAlign=middle;whiteSpace=wrap;rounded=0;fontColor=#999999;" vertex="1" parent="IgfFBBctw5f2I0VB_9IK-46">
          <mxGeometry x="20" width="10" height="16" as="geometry" />
        </mxCell>
        <mxCell id="IgfFBBctw5f2I0VB_9IK-53" value="" style="group;fontColor=#999999;" vertex="1" connectable="0" parent="1">
          <mxGeometry x="600" y="250.89999999999998" width="30" height="16" as="geometry" />
        </mxCell>
        <mxCell id="IgfFBBctw5f2I0VB_9IK-54" value="&lt;b&gt;|&lt;/b&gt;" style="text;html=1;align=center;verticalAlign=middle;whiteSpace=wrap;rounded=0;fontColor=#999999;" vertex="1" parent="IgfFBBctw5f2I0VB_9IK-53">
          <mxGeometry width="10" height="16" as="geometry" />
        </mxCell>
        <mxCell id="IgfFBBctw5f2I0VB_9IK-55" value="&lt;b&gt;|&lt;/b&gt;" style="text;html=1;align=center;verticalAlign=middle;whiteSpace=wrap;rounded=0;fontColor=#999999;" vertex="1" parent="IgfFBBctw5f2I0VB_9IK-53">
          <mxGeometry x="10" width="10" height="16" as="geometry" />
        </mxCell>
        <mxCell id="IgfFBBctw5f2I0VB_9IK-56" value="&lt;b&gt;|&lt;/b&gt;" style="text;html=1;align=center;verticalAlign=middle;whiteSpace=wrap;rounded=0;fontColor=#999999;" vertex="1" parent="IgfFBBctw5f2I0VB_9IK-53">
          <mxGeometry x="20" width="10" height="16" as="geometry" />
        </mxCell>
        <mxCell id="IgfFBBctw5f2I0VB_9IK-57" value="" style="group;fontColor=#999999;" vertex="1" connectable="0" parent="1">
          <mxGeometry x="628" y="250.89999999999998" width="30" height="16" as="geometry" />
        </mxCell>
        <mxCell id="IgfFBBctw5f2I0VB_9IK-58" value="&lt;b&gt;|&lt;/b&gt;" style="text;html=1;align=center;verticalAlign=middle;whiteSpace=wrap;rounded=0;fontColor=#999999;" vertex="1" parent="IgfFBBctw5f2I0VB_9IK-57">
          <mxGeometry width="10" height="16" as="geometry" />
        </mxCell>
        <mxCell id="IgfFBBctw5f2I0VB_9IK-59" value="&lt;b&gt;|&lt;/b&gt;" style="text;html=1;align=center;verticalAlign=middle;whiteSpace=wrap;rounded=0;fontColor=#999999;" vertex="1" parent="IgfFBBctw5f2I0VB_9IK-57">
          <mxGeometry x="10" width="10" height="16" as="geometry" />
        </mxCell>
        <mxCell id="IgfFBBctw5f2I0VB_9IK-60" value="&lt;b&gt;|&lt;/b&gt;" style="text;html=1;align=center;verticalAlign=middle;whiteSpace=wrap;rounded=0;fontColor=#999999;" vertex="1" parent="IgfFBBctw5f2I0VB_9IK-57">
          <mxGeometry x="20" width="10" height="16" as="geometry" />
        </mxCell>
        <mxCell id="IgfFBBctw5f2I0VB_9IK-68" value="&lt;font style=&quot;font-size: 16px;&quot;&gt;R&lt;sub&gt;8&lt;br&gt;&lt;/sub&gt;&lt;/font&gt;" style="html=1;shadow=1;dashed=0;align=center;verticalAlign=middle;shape=mxgraph.arrows2.arrow;dy=0;dx=10;notch=0;fillColor=#f5f5f5;fontColor=#333333;strokeColor=#666666;strokeWidth=0;" vertex="1" parent="1">
          <mxGeometry x="481" y="174.9" width="60" height="20" as="geometry" />
        </mxCell>
        <mxCell id="IgfFBBctw5f2I0VB_9IK-69" value="&lt;font style=&quot;font-size: 16px;&quot;&gt;R&lt;sub&gt;7&lt;br&gt;&lt;/sub&gt;&lt;/font&gt;" style="html=1;shadow=1;dashed=0;align=center;verticalAlign=middle;shape=mxgraph.arrows2.arrow;dy=0;dx=10;notch=0;fillColor=#f5f5f5;fontColor=#333333;strokeColor=#666666;strokeWidth=0;" vertex="1" parent="1">
          <mxGeometry x="481" y="234.9" width="60" height="20" as="geometry" />
        </mxCell>
        <mxCell id="IgfFBBctw5f2I0VB_9IK-70" value="&lt;font style=&quot;font-size: 16px;&quot; face=&quot;Courier New&quot;&gt;ATATGCCT&lt;/font&gt;" style="text;whiteSpace=wrap;html=1;" vertex="1" parent="1">
          <mxGeometry x="73" y="55" width="87" height="25" as="geometry" />
        </mxCell>
        <mxCell id="IgfFBBctw5f2I0VB_9IK-71" value="&lt;font style=&quot;font-size: 16px;&quot; face=&quot;Courier New&quot;&gt;ATATATGC&lt;/font&gt;" style="text;whiteSpace=wrap;html=1;" vertex="1" parent="1">
          <mxGeometry x="73" y="76.5" width="87" height="33" as="geometry" />
        </mxCell>
        <mxCell id="IgfFBBctw5f2I0VB_9IK-72" value="ATGGGTCCATA" style="text;whiteSpace=wrap;fontFamily=Courier New;fontSize=16;" vertex="1" parent="1">
          <mxGeometry x="73" y="100" width="110" height="40" as="geometry" />
        </mxCell>
        <mxCell id="IgfFBBctw5f2I0VB_9IK-74" value="ATATATGC&lt;span style=&quot;background-color: rgb(204, 204, 204);&quot;&gt;A&lt;/span&gt;T" style="text;whiteSpace=wrap;fontSize=16;html=1;" vertex="1" parent="1">
          <mxGeometry x="273" y="31" width="100" height="29" as="geometry" />
        </mxCell>
        <mxCell id="IgfFBBctw5f2I0VB_9IK-76" value="&lt;font style=&quot;font-size: 16px;&quot; face=&quot;Courier New&quot;&gt;ATATGC&lt;span style=&quot;background-color: rgb(204, 204, 204);&quot;&gt;T&lt;/span&gt;T&lt;/font&gt;" style="text;whiteSpace=wrap;html=1;" vertex="1" parent="1">
          <mxGeometry x="273" y="55" width="90" height="25" as="geometry" />
        </mxCell>
        <mxCell id="IgfFBBctw5f2I0VB_9IK-77" value="TCCATATATATA" style="text;whiteSpace=wrap;fontFamily=Courier New;fontSize=16;" vertex="1" parent="1">
          <mxGeometry x="273" y="76" width="110" height="33.5" as="geometry" />
        </mxCell>
        <mxCell id="IgfFBBctw5f2I0VB_9IK-78" value="GGGTCC&lt;span style=&quot;background-color: rgb(204, 204, 204);&quot;&gt;T&lt;/span&gt;TATATA" style="text;whiteSpace=wrap;fontSize=16;fontFamily=Courier New;html=1;" vertex="1" parent="1">
          <mxGeometry x="273" y="100" width="130" height="40" as="geometry" />
        </mxCell>
        <mxCell id="IgfFBBctw5f2I0VB_9IK-79" value="" style="group" vertex="1" connectable="0" parent="1">
          <mxGeometry x="10" y="140" width="440" height="119" as="geometry" />
        </mxCell>
        <mxCell id="NRrkbkx58YSTAkcjEtVz-107" value="" style="group" parent="IgfFBBctw5f2I0VB_9IK-79" vertex="1" connectable="0">
          <mxGeometry width="440" height="119" as="geometry" />
        </mxCell>
        <mxCell id="NRrkbkx58YSTAkcjEtVz-101" style="rounded=0;orthogonalLoop=1;jettySize=auto;html=1;exitX=1;exitY=1;exitDx=0;exitDy=0;entryX=0;entryY=0;entryDx=0;entryDy=0;" parent="NRrkbkx58YSTAkcjEtVz-107" source="NRrkbkx58YSTAkcjEtVz-84" target="NRrkbkx58YSTAkcjEtVz-89" edge="1">
          <mxGeometry relative="1" as="geometry" />
        </mxCell>
        <mxCell id="NRrkbkx58YSTAkcjEtVz-35" style="edgeStyle=orthogonalEdgeStyle;rounded=0;orthogonalLoop=1;jettySize=auto;html=1;exitX=1;exitY=0.5;exitDx=0;exitDy=0;entryX=0;entryY=0.5;entryDx=0;entryDy=0;" parent="NRrkbkx58YSTAkcjEtVz-107" source="NRrkbkx58YSTAkcjEtVz-27" target="NRrkbkx58YSTAkcjEtVz-34" edge="1">
          <mxGeometry relative="1" as="geometry" />
        </mxCell>
        <mxCell id="NRrkbkx58YSTAkcjEtVz-53" value="11" style="edgeLabel;html=1;align=center;verticalAlign=middle;resizable=0;points=[];" parent="NRrkbkx58YSTAkcjEtVz-35" vertex="1" connectable="0">
          <mxGeometry x="-0.2422" y="2" relative="1" as="geometry">
            <mxPoint as="offset" />
          </mxGeometry>
        </mxCell>
        <mxCell id="NRrkbkx58YSTAkcjEtVz-42" style="edgeStyle=orthogonalEdgeStyle;rounded=0;orthogonalLoop=1;jettySize=auto;html=1;exitX=0.5;exitY=1;exitDx=0;exitDy=0;entryX=0.5;entryY=1;entryDx=0;entryDy=0;" parent="NRrkbkx58YSTAkcjEtVz-107" source="NRrkbkx58YSTAkcjEtVz-27" target="NRrkbkx58YSTAkcjEtVz-40" edge="1">
          <mxGeometry relative="1" as="geometry" />
        </mxCell>
        <mxCell id="NRrkbkx58YSTAkcjEtVz-52" value="9" style="edgeLabel;html=1;align=center;verticalAlign=middle;resizable=0;points=[];" parent="NRrkbkx58YSTAkcjEtVz-42" vertex="1" connectable="0">
          <mxGeometry x="-0.035" y="1" relative="1" as="geometry">
            <mxPoint as="offset" />
          </mxGeometry>
        </mxCell>
        <mxCell id="NRrkbkx58YSTAkcjEtVz-61" style="edgeStyle=orthogonalEdgeStyle;rounded=0;orthogonalLoop=1;jettySize=auto;html=1;exitX=0.5;exitY=0;exitDx=0;exitDy=0;entryX=0.5;entryY=0;entryDx=0;entryDy=0;" parent="NRrkbkx58YSTAkcjEtVz-107" source="NRrkbkx58YSTAkcjEtVz-27" target="NRrkbkx58YSTAkcjEtVz-55" edge="1">
          <mxGeometry relative="1" as="geometry">
            <Array as="points">
              <mxPoint x="20" />
              <mxPoint x="260" />
            </Array>
          </mxGeometry>
        </mxCell>
        <mxCell id="NRrkbkx58YSTAkcjEtVz-63" value="6" style="edgeLabel;html=1;align=center;verticalAlign=middle;resizable=0;points=[];" parent="NRrkbkx58YSTAkcjEtVz-61" vertex="1" connectable="0">
          <mxGeometry x="0.083" y="1" relative="1" as="geometry">
            <mxPoint as="offset" />
          </mxGeometry>
        </mxCell>
        <mxCell id="NRrkbkx58YSTAkcjEtVz-27" value="&lt;font style=&quot;font-size: 16px;&quot;&gt;R&lt;sub&gt;4&lt;/sub&gt;&lt;/font&gt;" style="ellipse;whiteSpace=wrap;html=1;aspect=fixed;fillColor=#f5f5f5;fontColor=#333333;strokeColor=none;shadow=1;" parent="NRrkbkx58YSTAkcjEtVz-107" vertex="1">
          <mxGeometry y="39" width="40" height="40" as="geometry" />
        </mxCell>
        <mxCell id="NRrkbkx58YSTAkcjEtVz-60" style="edgeStyle=orthogonalEdgeStyle;rounded=0;orthogonalLoop=1;jettySize=auto;html=1;exitX=0.5;exitY=0;exitDx=0;exitDy=0;entryX=0.5;entryY=0;entryDx=0;entryDy=0;" parent="NRrkbkx58YSTAkcjEtVz-107" source="NRrkbkx58YSTAkcjEtVz-34" target="NRrkbkx58YSTAkcjEtVz-55" edge="1">
          <mxGeometry relative="1" as="geometry" />
        </mxCell>
        <mxCell id="NRrkbkx58YSTAkcjEtVz-62" value="8" style="edgeLabel;html=1;align=center;verticalAlign=middle;resizable=0;points=[];" parent="NRrkbkx58YSTAkcjEtVz-60" vertex="1" connectable="0">
          <mxGeometry x="0.0557" y="-1" relative="1" as="geometry">
            <mxPoint as="offset" />
          </mxGeometry>
        </mxCell>
        <mxCell id="NRrkbkx58YSTAkcjEtVz-75" style="edgeStyle=orthogonalEdgeStyle;rounded=0;orthogonalLoop=1;jettySize=auto;html=1;exitX=1;exitY=1;exitDx=0;exitDy=0;entryX=0;entryY=1;entryDx=0;entryDy=0;" parent="NRrkbkx58YSTAkcjEtVz-107" source="NRrkbkx58YSTAkcjEtVz-34" target="NRrkbkx58YSTAkcjEtVz-40" edge="1">
          <mxGeometry relative="1" as="geometry" />
        </mxCell>
        <mxCell id="NRrkbkx58YSTAkcjEtVz-76" value="11" style="edgeLabel;html=1;align=center;verticalAlign=middle;resizable=0;points=[];" parent="NRrkbkx58YSTAkcjEtVz-75" vertex="1" connectable="0">
          <mxGeometry x="0.1392" y="-1" relative="1" as="geometry">
            <mxPoint as="offset" />
          </mxGeometry>
        </mxCell>
        <mxCell id="NRrkbkx58YSTAkcjEtVz-34" value="&lt;font style=&quot;font-size: 16px;&quot;&gt;R&lt;sub&gt;1&lt;/sub&gt;&lt;/font&gt;" style="ellipse;whiteSpace=wrap;html=1;aspect=fixed;fillColor=#f5f5f5;fontColor=#333333;strokeColor=none;shadow=1;" parent="NRrkbkx58YSTAkcjEtVz-107" vertex="1">
          <mxGeometry x="80" y="39" width="40" height="40" as="geometry" />
        </mxCell>
        <mxCell id="NRrkbkx58YSTAkcjEtVz-56" style="edgeStyle=orthogonalEdgeStyle;rounded=0;orthogonalLoop=1;jettySize=auto;html=1;exitX=1;exitY=0.5;exitDx=0;exitDy=0;entryX=0;entryY=0.5;entryDx=0;entryDy=0;" parent="NRrkbkx58YSTAkcjEtVz-107" source="NRrkbkx58YSTAkcjEtVz-40" target="NRrkbkx58YSTAkcjEtVz-55" edge="1">
          <mxGeometry relative="1" as="geometry" />
        </mxCell>
        <mxCell id="NRrkbkx58YSTAkcjEtVz-57" value="10" style="edgeLabel;html=1;align=center;verticalAlign=middle;resizable=0;points=[];" parent="NRrkbkx58YSTAkcjEtVz-56" vertex="1" connectable="0">
          <mxGeometry x="0.004" relative="1" as="geometry">
            <mxPoint as="offset" />
          </mxGeometry>
        </mxCell>
        <mxCell id="NRrkbkx58YSTAkcjEtVz-73" style="edgeStyle=orthogonalEdgeStyle;rounded=0;orthogonalLoop=1;jettySize=auto;html=1;exitX=0;exitY=0;exitDx=0;exitDy=0;entryX=1;entryY=0;entryDx=0;entryDy=0;" parent="NRrkbkx58YSTAkcjEtVz-107" source="NRrkbkx58YSTAkcjEtVz-40" target="NRrkbkx58YSTAkcjEtVz-34" edge="1">
          <mxGeometry relative="1" as="geometry" />
        </mxCell>
        <mxCell id="NRrkbkx58YSTAkcjEtVz-74" value="6" style="edgeLabel;html=1;align=center;verticalAlign=middle;resizable=0;points=[];" parent="NRrkbkx58YSTAkcjEtVz-73" vertex="1" connectable="0">
          <mxGeometry x="0.0522" y="-1" relative="1" as="geometry">
            <mxPoint y="2" as="offset" />
          </mxGeometry>
        </mxCell>
        <mxCell id="NRrkbkx58YSTAkcjEtVz-77" style="edgeStyle=orthogonalEdgeStyle;rounded=0;orthogonalLoop=1;jettySize=auto;html=1;exitX=1;exitY=1;exitDx=0;exitDy=0;entryX=0.5;entryY=1;entryDx=0;entryDy=0;" parent="NRrkbkx58YSTAkcjEtVz-107" source="NRrkbkx58YSTAkcjEtVz-40" target="NRrkbkx58YSTAkcjEtVz-64" edge="1">
          <mxGeometry relative="1" as="geometry">
            <Array as="points">
              <mxPoint x="191" y="99" />
              <mxPoint x="340" y="99" />
            </Array>
          </mxGeometry>
        </mxCell>
        <mxCell id="NRrkbkx58YSTAkcjEtVz-78" value="6" style="edgeLabel;html=1;align=center;verticalAlign=middle;resizable=0;points=[];" parent="NRrkbkx58YSTAkcjEtVz-77" vertex="1" connectable="0">
          <mxGeometry x="0.0435" y="-1" relative="1" as="geometry">
            <mxPoint as="offset" />
          </mxGeometry>
        </mxCell>
        <mxCell id="NRrkbkx58YSTAkcjEtVz-40" value="&lt;font style=&quot;font-size: 16px;&quot;&gt;R&lt;sub&gt;8&lt;/sub&gt;&lt;/font&gt;" style="ellipse;whiteSpace=wrap;html=1;aspect=fixed;fillColor=#f5f5f5;fontColor=#333333;strokeColor=none;shadow=1;" parent="NRrkbkx58YSTAkcjEtVz-107" vertex="1">
          <mxGeometry x="157" y="39" width="40" height="40" as="geometry" />
        </mxCell>
        <mxCell id="NRrkbkx58YSTAkcjEtVz-65" style="edgeStyle=orthogonalEdgeStyle;rounded=0;orthogonalLoop=1;jettySize=auto;html=1;exitX=1;exitY=0.5;exitDx=0;exitDy=0;entryX=0;entryY=0.5;entryDx=0;entryDy=0;" parent="NRrkbkx58YSTAkcjEtVz-107" source="NRrkbkx58YSTAkcjEtVz-55" target="NRrkbkx58YSTAkcjEtVz-64" edge="1">
          <mxGeometry relative="1" as="geometry" />
        </mxCell>
        <mxCell id="NRrkbkx58YSTAkcjEtVz-81" value="7" style="edgeLabel;html=1;align=center;verticalAlign=middle;resizable=0;points=[];" parent="NRrkbkx58YSTAkcjEtVz-65" vertex="1" connectable="0">
          <mxGeometry x="-0.1052" y="-1" relative="1" as="geometry">
            <mxPoint as="offset" />
          </mxGeometry>
        </mxCell>
        <mxCell id="NRrkbkx58YSTAkcjEtVz-86" style="edgeStyle=orthogonalEdgeStyle;rounded=0;orthogonalLoop=1;jettySize=auto;html=1;exitX=1;exitY=0.5;exitDx=0;exitDy=0;entryX=0;entryY=0.5;entryDx=0;entryDy=0;" parent="NRrkbkx58YSTAkcjEtVz-107" source="NRrkbkx58YSTAkcjEtVz-55" target="NRrkbkx58YSTAkcjEtVz-84" edge="1">
          <mxGeometry relative="1" as="geometry" />
        </mxCell>
        <mxCell id="NRrkbkx58YSTAkcjEtVz-87" value="7" style="edgeLabel;html=1;align=center;verticalAlign=middle;resizable=0;points=[];" parent="NRrkbkx58YSTAkcjEtVz-86" vertex="1" connectable="0">
          <mxGeometry x="0.117" y="1" relative="1" as="geometry">
            <mxPoint as="offset" />
          </mxGeometry>
        </mxCell>
        <mxCell id="NRrkbkx58YSTAkcjEtVz-55" value="&lt;font style=&quot;font-size: 16px;&quot;&gt;R&lt;sub&gt;7&lt;/sub&gt;&lt;/font&gt;" style="ellipse;whiteSpace=wrap;html=1;aspect=fixed;fillColor=#f5f5f5;fontColor=#333333;strokeColor=none;shadow=1;" parent="NRrkbkx58YSTAkcjEtVz-107" vertex="1">
          <mxGeometry x="240" y="39" width="40" height="40" as="geometry" />
        </mxCell>
        <mxCell id="NRrkbkx58YSTAkcjEtVz-94" style="rounded=0;orthogonalLoop=1;jettySize=auto;html=1;exitX=1;exitY=0;exitDx=0;exitDy=0;entryX=0;entryY=1;entryDx=0;entryDy=0;" parent="NRrkbkx58YSTAkcjEtVz-107" source="NRrkbkx58YSTAkcjEtVz-64" target="NRrkbkx58YSTAkcjEtVz-88" edge="1">
          <mxGeometry relative="1" as="geometry" />
        </mxCell>
        <mxCell id="NRrkbkx58YSTAkcjEtVz-96" value="6" style="edgeLabel;html=1;align=center;verticalAlign=middle;resizable=0;points=[];" parent="NRrkbkx58YSTAkcjEtVz-94" vertex="1" connectable="0">
          <mxGeometry x="0.0207" y="2" relative="1" as="geometry">
            <mxPoint x="-15" y="16" as="offset" />
          </mxGeometry>
        </mxCell>
        <mxCell id="NRrkbkx58YSTAkcjEtVz-97" style="edgeStyle=orthogonalEdgeStyle;rounded=0;orthogonalLoop=1;jettySize=auto;html=1;exitX=0.5;exitY=0;exitDx=0;exitDy=0;entryX=0.5;entryY=1;entryDx=0;entryDy=0;" parent="NRrkbkx58YSTAkcjEtVz-107" source="NRrkbkx58YSTAkcjEtVz-64" target="NRrkbkx58YSTAkcjEtVz-84" edge="1">
          <mxGeometry relative="1" as="geometry" />
        </mxCell>
        <mxCell id="NRrkbkx58YSTAkcjEtVz-98" value="8" style="edgeLabel;html=1;align=center;verticalAlign=middle;resizable=0;points=[];" parent="NRrkbkx58YSTAkcjEtVz-97" vertex="1" connectable="0">
          <mxGeometry x="0.0575" relative="1" as="geometry">
            <mxPoint as="offset" />
          </mxGeometry>
        </mxCell>
        <mxCell id="NRrkbkx58YSTAkcjEtVz-99" style="edgeStyle=orthogonalEdgeStyle;rounded=0;orthogonalLoop=1;jettySize=auto;html=1;exitX=1;exitY=0.5;exitDx=0;exitDy=0;entryX=0;entryY=0.5;entryDx=0;entryDy=0;" parent="NRrkbkx58YSTAkcjEtVz-107" source="NRrkbkx58YSTAkcjEtVz-64" target="NRrkbkx58YSTAkcjEtVz-89" edge="1">
          <mxGeometry relative="1" as="geometry" />
        </mxCell>
        <mxCell id="NRrkbkx58YSTAkcjEtVz-100" value="6" style="edgeLabel;html=1;align=center;verticalAlign=middle;resizable=0;points=[];" parent="NRrkbkx58YSTAkcjEtVz-99" vertex="1" connectable="0">
          <mxGeometry x="-0.0017" y="2" relative="1" as="geometry">
            <mxPoint as="offset" />
          </mxGeometry>
        </mxCell>
        <mxCell id="NRrkbkx58YSTAkcjEtVz-64" value="&lt;font style=&quot;font-size: 16px;&quot;&gt;R&lt;sub&gt;3&lt;/sub&gt;&lt;/font&gt;" style="ellipse;whiteSpace=wrap;html=1;aspect=fixed;fillColor=#f5f5f5;fontColor=#333333;strokeColor=none;shadow=1;" parent="NRrkbkx58YSTAkcjEtVz-107" vertex="1">
          <mxGeometry x="320" y="79" width="40" height="40" as="geometry" />
        </mxCell>
        <mxCell id="NRrkbkx58YSTAkcjEtVz-103" style="edgeStyle=orthogonalEdgeStyle;rounded=0;orthogonalLoop=1;jettySize=auto;html=1;exitX=1;exitY=0.5;exitDx=0;exitDy=0;" parent="NRrkbkx58YSTAkcjEtVz-107" source="NRrkbkx58YSTAkcjEtVz-84" target="NRrkbkx58YSTAkcjEtVz-88" edge="1">
          <mxGeometry relative="1" as="geometry" />
        </mxCell>
        <mxCell id="NRrkbkx58YSTAkcjEtVz-104" value="8" style="edgeLabel;html=1;align=center;verticalAlign=middle;resizable=0;points=[];" parent="NRrkbkx58YSTAkcjEtVz-103" vertex="1" connectable="0">
          <mxGeometry x="-0.1052" relative="1" as="geometry">
            <mxPoint as="offset" />
          </mxGeometry>
        </mxCell>
        <mxCell id="NRrkbkx58YSTAkcjEtVz-84" value="&lt;font style=&quot;font-size: 16px;&quot;&gt;R&lt;sub&gt;5&lt;/sub&gt;&lt;/font&gt;" style="ellipse;whiteSpace=wrap;html=1;aspect=fixed;fillColor=#f5f5f5;fontColor=#333333;strokeColor=none;shadow=1;" parent="NRrkbkx58YSTAkcjEtVz-107" vertex="1">
          <mxGeometry x="320" width="40" height="40" as="geometry" />
        </mxCell>
        <mxCell id="NRrkbkx58YSTAkcjEtVz-88" value="&lt;font style=&quot;font-size: 16px;&quot;&gt;R&lt;sub&gt;2&lt;/sub&gt;&lt;/font&gt;" style="ellipse;whiteSpace=wrap;html=1;aspect=fixed;fillColor=#f5f5f5;fontColor=#333333;strokeColor=none;shadow=1;" parent="NRrkbkx58YSTAkcjEtVz-107" vertex="1">
          <mxGeometry x="400" width="40" height="40" as="geometry" />
        </mxCell>
        <mxCell id="NRrkbkx58YSTAkcjEtVz-105" style="edgeStyle=orthogonalEdgeStyle;rounded=0;orthogonalLoop=1;jettySize=auto;html=1;exitX=0.5;exitY=0;exitDx=0;exitDy=0;entryX=0.5;entryY=1;entryDx=0;entryDy=0;startArrow=none;startFill=0;" parent="NRrkbkx58YSTAkcjEtVz-107" edge="1">
          <mxGeometry relative="1" as="geometry">
            <mxPoint x="415.9999999999998" y="79.99999999999989" as="sourcePoint" />
            <mxPoint x="415.9999999999998" y="41" as="targetPoint" />
          </mxGeometry>
        </mxCell>
        <mxCell id="NRrkbkx58YSTAkcjEtVz-106" value="8" style="edgeLabel;html=1;align=center;verticalAlign=middle;resizable=0;points=[];" parent="NRrkbkx58YSTAkcjEtVz-105" vertex="1" connectable="0">
          <mxGeometry x="0.0221" y="-2" relative="1" as="geometry">
            <mxPoint x="-2" as="offset" />
          </mxGeometry>
        </mxCell>
        <mxCell id="NRrkbkx58YSTAkcjEtVz-89" value="&lt;font style=&quot;font-size: 16px;&quot;&gt;R&lt;sub&gt;6&lt;/sub&gt;&lt;/font&gt;" style="ellipse;whiteSpace=wrap;html=1;aspect=fixed;fillColor=#f5f5f5;fontColor=#333333;strokeColor=none;shadow=1;" parent="NRrkbkx58YSTAkcjEtVz-107" vertex="1">
          <mxGeometry x="400" y="79" width="40" height="40" as="geometry" />
        </mxCell>
        <mxCell id="NRrkbkx58YSTAkcjEtVz-102" value="8" style="edgeLabel;html=1;align=center;verticalAlign=middle;resizable=0;points=[];" parent="NRrkbkx58YSTAkcjEtVz-107" vertex="1" connectable="0">
          <mxGeometry x="380.33124540261724" y="92.35460854201926" as="geometry">
            <mxPoint x="-15" y="-48" as="offset" />
          </mxGeometry>
        </mxCell>
        <mxCell id="NRrkbkx58YSTAkcjEtVz-114" style="edgeStyle=orthogonalEdgeStyle;rounded=0;orthogonalLoop=1;jettySize=auto;html=1;exitX=0.5;exitY=0;exitDx=0;exitDy=0;entryX=0.5;entryY=1;entryDx=0;entryDy=0;startArrow=classic;startFill=1;endArrow=none;endFill=0;" parent="IgfFBBctw5f2I0VB_9IK-79" edge="1">
          <mxGeometry relative="1" as="geometry">
            <mxPoint x="424" y="80" as="sourcePoint" />
            <mxPoint x="424" y="41" as="targetPoint" />
          </mxGeometry>
        </mxCell>
        <mxCell id="NRrkbkx58YSTAkcjEtVz-115" value="8" style="edgeLabel;html=1;align=center;verticalAlign=middle;resizable=0;points=[];" parent="NRrkbkx58YSTAkcjEtVz-114" vertex="1" connectable="0">
          <mxGeometry x="0.0221" y="-2" relative="1" as="geometry">
            <mxPoint x="-2" as="offset" />
          </mxGeometry>
        </mxCell>
        <mxCell id="IgfFBBctw5f2I0VB_9IK-81" value="" style="strokeWidth=1;html=1;shape=mxgraph.flowchart.annotation_2;align=left;labelPosition=right;pointerEvents=1;rotation=90;fontColor=#333333;" vertex="1" parent="1">
          <mxGeometry x="602" y="13" width="21" height="127.2" as="geometry" />
        </mxCell>
        <mxCell id="IgfFBBctw5f2I0VB_9IK-82" value="Префикс" style="text;html=1;align=center;verticalAlign=middle;whiteSpace=wrap;rounded=0;" vertex="1" parent="1">
          <mxGeometry x="581" y="39.9" width="60" height="30" as="geometry" />
        </mxCell>
        <mxCell id="IgfFBBctw5f2I0VB_9IK-83" value="" style="strokeWidth=1;html=1;shape=mxgraph.flowchart.annotation_2;align=left;labelPosition=right;pointerEvents=1;rotation=-90;fontColor=#333333;" vertex="1" parent="1">
          <mxGeometry x="594.7" y="81.2" width="16.4" height="110" as="geometry" />
        </mxCell>
        <mxCell id="IgfFBBctw5f2I0VB_9IK-84" value="Суффикс" style="text;html=1;align=center;verticalAlign=middle;whiteSpace=wrap;rounded=0;" vertex="1" parent="1">
          <mxGeometry x="572" y="134.65" width="60" height="30" as="geometry" />
        </mxCell>
      </root>
    </mxGraphModel>
  </diagram>
</mxfile>
